<?xml version="1.0" standalone="no"?>
<!DOCTYPE svg PUBLIC "-//W3C//DTD SVG 20010904//EN"
 "http://www.w3.org/TR/2001/REC-SVG-20010904/DTD/svg10.dtd">
<svg version="1.0" xmlns="http://www.w3.org/2000/svg"
 width="275.000000pt" height="183.000000pt" viewBox="0 0 275.000000 183.000000"
 preserveAspectRatio="xMidYMid meet">

<g transform="translate(0.000000,183.000000) scale(0.100000,-0.100000)"
fill="#000000" stroke="none">
<path d="M1842 1158 c-9 -9 -12 -77 -12 -245 0 -219 1 -233 19 -243 12 -6 107
-10 240 -10 186 0 222 2 235 16 14 13 16 49 16 235 0 133 -4 228 -10 240 -10
18 -24 19 -243 19 -168 0 -236 -3 -245 -12z m140 -83 c9 -21 8 -28 -7 -45 -24
-27 -51 -25 -70 4 -23 34 -5 66 36 66 22 0 32 -6 41 -25z m253 -109 c26 -26
39 -96 33 -181 l-3 -50 -40 0 -40 0 -3 87 c-2 78 -5 88 -23 93 -37 12 -51 -15
-52 -101 l-2 -79 -40 0 -40 0 -3 123 -3 122 41 0 c22 0 40 -5 40 -11 0 -5 10
-3 22 5 34 24 85 20 113 -8z m-255 -111 l0 -125 -40 0 -40 0 0 125 0 125 40 0
40 0 0 -125z"/>
<path d="M586 1084 c-19 -18 -19 -20 -6 -45 14 -25 56 -25 70 1 23 44 -29 80
-64 44z"/>
<path d="M320 915 l0 -175 110 0 110 0 0 35 0 35 -75 0 -75 0 0 140 0 140 -35
0 -35 0 0 -175z"/>
<path d="M970 915 l0 -175 35 0 34 0 3 63 3 62 43 -62 c42 -62 44 -63 88 -63
l45 0 -45 59 c-25 33 -46 63 -46 68 0 5 21 32 46 61 l46 52 -44 0 c-39 0 -47
-4 -90 -52 l-47 -53 -1 108 0 107 -35 0 -35 0 0 -175z"/>
<path d="M1680 1025 c0 -58 -9 -80 -24 -56 -11 17 -67 21 -101 7 -89 -37 -87
-195 2 -233 39 -16 78 -11 106 14 15 15 17 15 17 0 0 -13 9 -17 35 -17 l35 0
0 175 0 175 -35 0 -35 0 0 -65z m-10 -124 c15 -29 12 -77 -6 -91 -23 -20 -75
-16 -90 5 -17 22 -18 59 -4 86 8 14 21 19 50 19 29 0 42 -5 50 -19z"/>
<path d="M1315 981 c-62 -15 -105 -65 -105 -121 0 -90 109 -154 189 -113 43
22 47 34 20 51 -15 10 -24 10 -34 2 -22 -18 -76 -8 -93 18 l-14 22 91 0 91 0
0 26 c0 79 -69 133 -145 115z m55 -59 c32 -26 18 -42 -35 -42 -52 0 -63 12
-35 40 25 25 41 25 70 2z"/>
<path d="M580 860 l0 -120 35 0 35 0 0 120 0 120 -35 0 -35 0 0 -120z"/>
<path d="M700 860 l0 -120 35 0 35 0 0 78 c0 82 9 102 45 102 36 0 45 -20 45
-102 l0 -78 36 0 36 0 -4 99 c-2 80 -7 103 -22 120 -24 26 -91 29 -118 4 -17
-15 -18 -15 -18 0 0 13 -9 17 -35 17 l-35 0 0 -120z"/>
</g>
</svg>
