<?xml version="1.0" standalone="no"?>
<!DOCTYPE svg PUBLIC "-//W3C//DTD SVG 20010904//EN"
 "http://www.w3.org/TR/2001/REC-SVG-20010904/DTD/svg10.dtd">
<svg version="1.0" xmlns="http://www.w3.org/2000/svg"
 width="225.000000pt" height="225.000000pt" viewBox="0 0 225.000000 225.000000"
 preserveAspectRatio="xMidYMid meet">

<g transform="translate(0.000000,225.000000) scale(0.100000,-0.100000)"
fill="#000000" stroke="none">
<path d="M116 2240 c-41 -13 -94 -68 -106 -110 -13 -48 -14 -1963 0 -2009 13
-46 65 -99 110 -111 48 -13 1962 -13 2010 0 45 12 97 65 110 111 14 46 13
1961 0 2009 -12 45 -65 97 -111 110 -43 13 -1972 12 -2013 0z m457 -304 c41
-17 91 -74 107 -121 27 -81 -11 -179 -87 -226 -59 -37 -147 -34 -204 6 -126
89 -117 270 16 339 37 19 125 21 168 2z m1007 -507 c130 -21 263 -126 312
-246 22 -57 23 -66 26 -455 l3 -398 -165 0 -165 0 -3 328 c-3 320 -4 328 -27
375 -52 106 -168 132 -284 64 -35 -21 -52 -40 -74 -84 l-28 -58 -3 -312 -4
-313 -164 0 -164 0 0 540 0 540 160 0 160 0 0 -72 c0 -67 1 -71 15 -51 50 71
192 137 330 152 6 0 39 -4 75 -10z m-920 -559 l0 -540 -165 0 -165 0 0 540 0
540 165 0 165 0 0 -540z"/>
</g>
</svg>
