<?xml version="1.0" standalone="no"?>
<!DOCTYPE svg PUBLIC "-//W3C//DTD SVG 20010904//EN"
 "http://www.w3.org/TR/2001/REC-SVG-20010904/DTD/svg10.dtd">
<svg version="1.0" xmlns="http://www.w3.org/2000/svg"
 width="252.000000pt" height="200.000000pt" viewBox="0 0 252.000000 200.000000"
 preserveAspectRatio="xMidYMid meet">

<g transform="translate(0.000000,200.000000) scale(0.100000,-0.100000)"
fill="#000000" stroke="none">
<path d="M1150 1794 c-71 -19 -161 -63 -244 -119 -46 -32 -75 -45 -100 -45
-73 0 -118 -43 -114 -106 2 -33 -4 -41 -65 -96 -203 -181 -242 -394 -116 -628
23 -41 65 -104 94 -140 43 -53 52 -70 48 -93 -4 -22 2 -35 39 -72 33 -33 53
-45 75 -45 22 0 42 -13 83 -56 78 -79 159 -140 236 -176 65 -30 68 -31 183
-25 170 8 242 40 381 174 46 45 73 63 92 63 38 0 108 68 108 104 0 17 18 49
49 89 53 68 125 185 156 257 15 33 20 67 20 135 0 83 -3 96 -36 166 -49 102
-100 180 -157 241 -32 35 -47 59 -48 80 -2 38 -59 98 -98 102 -17 2 -47 22
-79 53 -120 116 -208 153 -361 152 -50 0 -116 -7 -146 -15z m240 -14 c82 -16
150 -52 215 -114 l60 -57 -45 27 c-165 100 -417 125 -599 59 -36 -13 -67 -22
-69 -20 -2 2 34 22 80 44 122 61 247 82 358 61z m75 -104 c82 -26 185 -79 185
-95 0 -5 -33 -38 -73 -74 -41 -36 -91 -91 -111 -121 l-38 -54 -56 19 c-72 25
-167 25 -232 0 l-51 -20 -76 102 c-41 56 -88 116 -105 133 l-29 31 33 21 c148
91 376 115 553 58z m-677 -273 c28 -32 78 -87 110 -122 l59 -65 -26 -55 c-33
-73 -40 -180 -16 -253 14 -43 14 -53 3 -56 -7 -2 -64 -55 -125 -117 l-113
-112 -29 51 c-134 234 -116 538 46 754 13 17 28 32 32 32 4 0 31 -26 59 -57z
m1081 -63 c60 -112 76 -182 76 -325 -1 -145 -14 -203 -71 -315 -52 -101 -45
-99 -100 -38 -27 29 -81 87 -121 128 l-72 76 14 39 c21 59 19 165 -5 232 l-20
57 28 30 c15 17 67 73 117 124 l89 93 18 -23 c10 -13 31 -48 47 -78z m-1259
-7 c-21 -43 -45 -109 -54 -146 -32 -129 -17 -347 29 -437 29 -55 0 -30 -37 33
-131 219 -113 410 55 585 23 23 42 42 43 42 1 0 -15 -35 -36 -77z m1373 -99
c85 -157 95 -240 42 -359 -23 -54 -130 -225 -139 -225 -3 0 9 29 25 65 55 121
77 270 59 391 -13 85 -48 196 -80 253 l-20 36 32 -37 c18 -20 55 -76 81 -124z
m-610 89 c34 -11 51 -22 57 -39 11 -29 88 -104 105 -104 27 0 59 -126 51 -195
-12 -90 -24 -115 -56 -115 -19 0 -43 -12 -66 -32 -32 -28 -36 -36 -31 -69 5
-37 4 -38 -47 -60 -69 -31 -189 -31 -258 -1 -33 15 -48 27 -48 40 0 25 -76
111 -105 118 -15 4 -26 18 -35 46 -23 77 -22 138 2 208 21 58 27 66 57 74 40
12 101 69 101 96 0 18 52 44 110 53 37 6 108 -2 163 -20z m183 -728 c49 -60
96 -116 104 -122 13 -12 13 -15 -5 -29 -35 -29 -178 -91 -247 -108 -170 -41
-374 -5 -529 95 l-47 30 120 120 120 120 59 -20 c95 -33 244 -22 305 24 10 7
22 11 25 7 3 -4 46 -56 95 -117z m34 -246 c-90 -83 -161 -116 -283 -130 -85
-11 -105 -10 -159 5 -64 18 -176 85 -218 130 l-24 27 54 -24 c120 -53 258 -74
380 -57 102 13 188 40 255 80 28 16 52 29 55 29 3 0 -24 -27 -60 -60z"/>
</g>
</svg>
