<?xml version="1.0" standalone="no"?>
<!DOCTYPE svg PUBLIC "-//W3C//DTD SVG 20010904//EN"
 "http://www.w3.org/TR/2001/REC-SVG-20010904/DTD/svg10.dtd">
<svg version="1.0" xmlns="http://www.w3.org/2000/svg"
 width="225.000000pt" height="225.000000pt" viewBox="0 0 225.000000 225.000000"
 preserveAspectRatio="xMidYMid meet">

<g transform="translate(0.000000,225.000000) scale(0.100000,-0.100000)"
fill="#000000" stroke="none">
<path d="M1003 1925 c5 -98 22 -166 53 -213 19 -28 33 -19 58 36 l18 39 -31
45 c-17 24 -47 78 -67 119 l-36 74 5 -100z"/>
<path d="M806 1940 c-45 -40 -65 -85 -82 -184 -24 -136 12 -245 110 -333 97
-87 225 -134 311 -113 80 18 110 98 60 159 -26 30 -54 41 -222 90 -78 23 -110
51 -144 126 -24 53 -24 163 0 233 10 28 14 52 10 52 -5 0 -24 -14 -43 -30z"/>
<path d="M1164 1794 c-20 -58 -55 -124 -83 -156 -17 -20 -31 -40 -31 -46 0 -5
17 -12 38 -16 54 -9 134 -56 157 -93 11 -18 25 -34 32 -37 6 -3 47 4 90 14 71
17 286 60 300 60 10 0 -8 54 -33 96 -14 24 -44 61 -66 84 -50 49 -129 76 -268
88 -52 5 -103 12 -112 16 -13 6 -20 3 -24 -10z"/>
<path d="M1783 1550 c-58 -42 -154 -80 -205 -80 -24 0 -48 -4 -55 -8 -14 -9
-71 -139 -114 -261 -19 -54 -29 -101 -27 -126 1 -23 -2 -38 -7 -36 -6 2 -16 6
-22 8 -7 3 -28 -11 -46 -31 -38 -40 -91 -66 -135 -66 -16 0 -36 -8 -46 -18
-15 -17 -15 -22 -1 -55 12 -30 13 -37 2 -37 -7 0 -18 5 -24 11 -7 7 -19 -1
-42 -29 -17 -22 -31 -44 -31 -49 0 -5 27 -35 60 -68 57 -56 78 -94 46 -82 -17
7 -22 -5 -32 -76 -4 -30 -3 -47 4 -47 15 0 52 -64 52 -89 0 -17 -4 -21 -19
-16 -14 4 -21 -2 -31 -25 -7 -17 -28 -56 -46 -87 l-34 -56 42 7 c99 16 170 70
234 179 39 67 42 81 14 72 -33 -10 -23 16 21 60 51 49 67 86 76 168 6 57 5 61
-11 48 -26 -22 -29 -7 -14 64 15 63 14 65 -3 60 -25 -8 -24 11 1 53 13 21 27
32 38 30 15 -3 17 -18 20 -106 1 -56 6 -102 10 -101 4 0 36 15 72 32 60 30 67
36 88 87 20 48 22 67 18 155 -2 55 -7 108 -11 118 -5 12 -2 17 9 17 10 0 20
-15 27 -45 6 -25 15 -45 19 -45 13 0 70 70 70 85 0 18 21 20 37 4 9 -9 24 -4
62 21 l51 32 -34 41 c-18 23 -43 61 -55 84 l-21 41 -47 -17 c-46 -17 -50 -22
-90 -104 -48 -99 -72 -115 -42 -30 23 68 23 73 4 73 -28 0 -15 19 33 47 82 47
130 93 158 149 14 29 24 58 22 64 -2 6 -22 -3 -45 -20z"/>
<path d="M1342 1422 c-48 -14 -61 -24 -123 -99 -131 -159 -334 -493 -312 -514
5 -3 24 -9 45 -13 l36 -7 66 94 c61 89 67 95 108 101 58 9 112 46 142 98 14
24 47 109 75 190 27 81 52 152 56 158 9 14 -29 11 -93 -8z"/>
<path d="M909 1269 c-116 -55 -318 -196 -417 -291 -64 -61 -134 -144 -152
-177 -12 -23 -11 -23 16 -17 16 4 76 13 132 20 89 12 106 18 120 38 52 73 281
309 389 399 l43 36 -35 10 c-30 10 -42 7 -96 -18z"/>
<path d="M1011 1210 c-84 -74 -233 -231 -301 -317 l-42 -53 90 0 90 0 12 35
c19 56 125 212 255 373 l26 32 -25 0 c-18 0 -51 -22 -105 -70z"/>
<path d="M1801 1122 c-36 -16 -73 -39 -83 -53 -10 -13 -29 -63 -43 -110 -29
-100 -85 -226 -143 -322 -22 -37 -36 -67 -31 -67 54 0 154 112 221 247 44 90
59 111 103 143 57 42 78 81 79 144 1 53 -16 56 -103 18z"/>
<path d="M1873 955 c-42 -18 -103 -108 -77 -113 29 -7 104 20 119 42 18 25 20
86 3 86 -7 -1 -28 -7 -45 -15z"/>
</g>
</svg>
