<?xml version="1.0" standalone="no"?>
<!DOCTYPE svg PUBLIC "-//W3C//DTD SVG 20010904//EN"
 "http://www.w3.org/TR/2001/REC-SVG-20010904/DTD/svg10.dtd">
<svg version="1.0" xmlns="http://www.w3.org/2000/svg"
 width="225.000000pt" height="225.000000pt" viewBox="0 0 225.000000 225.000000"
 preserveAspectRatio="xMidYMid meet">

<g transform="translate(0.000000,225.000000) scale(0.100000,-0.100000)"
fill="#000000" stroke="none">
<path d="M1101 2236 c-8 -9 -11 -53 -9 -131 3 -97 6 -120 20 -128 12 -8 21 -7
32 2 13 11 16 36 16 130 0 115 -7 141 -36 141 -6 0 -17 -6 -23 -14z"/>
<path d="M650 2114 c-15 -18 -18 -11 72 -167 31 -54 44 -68 60 -65 48 7 44 31
-19 139 -63 107 -86 126 -113 93z"/>
<path d="M1494 2033 c-66 -113 -71 -125 -50 -142 28 -24 48 -6 107 97 50 85
58 105 49 122 -22 42 -47 24 -106 -77z"/>
<path d="M980 1884 c-102 -27 -180 -73 -260 -153 -114 -115 -170 -248 -170
-406 0 -137 30 -219 142 -387 65 -97 114 -202 144 -313 11 -42 18 -125 23
-275 8 -245 15 -272 84 -318 39 -26 46 -27 181 -27 130 0 144 2 178 23 20 13
47 40 60 60 22 35 23 51 29 257 5 182 10 234 28 300 30 106 76 202 146 305 97
142 135 247 135 375 0 159 -55 291 -170 406 -82 83 -178 137 -278 158 -73 15
-206 13 -272 -5z m260 -65 c263 -60 438 -340 376 -602 -19 -81 -42 -127 -113
-228 -104 -149 -169 -325 -180 -486 l-6 -83 -192 0 -192 0 -6 83 c-11 157 -81
344 -183 489 -105 150 -137 262 -117 404 28 198 191 379 379 423 54 12 180 13
234 0z m80 -1514 c0 -42 1 -42 -193 -20 -186 22 -197 24 -197 40 0 13 31 15
195 15 l195 0 0 -35z m-3 -119 c22 -22 -28 -23 -192 -4 -175 20 -203 26 -192
45 6 9 373 -30 384 -41z m-179 -77 c67 -7 122 -16 122 -20 0 -14 -66 -21 -164
-17 -90 3 -97 5 -123 32 l-28 28 35 -5 c19 -4 90 -12 158 -18z"/>
<path d="M1100 1755 c-21 -25 -3 -55 33 -55 48 0 132 -25 181 -54 53 -31 117
-102 146 -160 24 -51 44 -150 36 -182 -4 -14 0 -29 10 -38 19 -20 29 -20 48 0
29 29 15 151 -30 252 -27 61 -111 153 -172 189 -91 53 -226 79 -252 48z"/>
<path d="M695 1356 c-15 -11 -17 -21 -12 -60 4 -26 9 -52 13 -57 8 -14 40 -11
54 6 20 24 -4 125 -29 125 -4 0 -15 -6 -26 -14z"/>
<path d="M1473 1188 c-5 -7 -22 -35 -37 -61 -29 -51 -24 -77 14 -77 31 0 84
83 78 123 -3 25 -39 35 -55 15z"/>
<path d="M742 1168 c-21 -21 -13 -41 62 -156 40 -61 88 -149 106 -194 39 -99
50 -113 80 -103 19 6 21 12 17 40 -10 62 -76 196 -152 311 -42 63 -81 114 -88
114 -7 0 -18 -5 -25 -12z"/>
<path d="M327 1793 c-4 -3 -7 -16 -7 -28 0 -16 22 -34 98 -78 105 -61 122 -66
142 -42 20 25 6 40 -95 99 -91 53 -123 65 -138 49z"/>
<path d="M1785 1745 c-101 -60 -115 -76 -96 -99 21 -25 37 -20 143 41 88 51
99 60 96 83 -5 42 -43 35 -143 -25z"/>
<path d="M212 1348 c-18 -18 -14 -46 7 -58 32 -17 213 -13 239 6 26 18 27 27
6 48 -20 20 -233 23 -252 4z"/>
<path d="M1786 1344 c-21 -21 -20 -30 6 -48 26 -19 207 -23 239 -6 21 12 25
40 7 58 -19 19 -232 16 -252 -4z"/>
<path d="M417 954 c-89 -51 -98 -58 -95 -82 2 -16 10 -28 20 -30 21 -4 214
103 222 124 9 23 -4 44 -28 44 -11 0 -65 -25 -119 -56z"/>
<path d="M1685 990 c-3 -11 -4 -24 -1 -29 11 -18 207 -122 224 -119 10 2 18
14 20 30 3 24 -6 31 -96 82 -106 60 -137 68 -147 36z"/>
</g>
</svg>
