<?xml version="1.0" standalone="no"?>
<!DOCTYPE svg PUBLIC "-//W3C//DTD SVG 20010904//EN"
 "http://www.w3.org/TR/2001/REC-SVG-20010904/DTD/svg10.dtd">
<svg version="1.0" xmlns="http://www.w3.org/2000/svg"
 width="273.000000pt" height="184.000000pt" viewBox="0 0 273.000000 184.000000"
 preserveAspectRatio="xMidYMid meet">

<g transform="translate(0.000000,184.000000) scale(0.100000,-0.100000)"
fill="#000000" stroke="none">
<path d="M20 1665 l0 -165 105 0 104 0 10 -37 c6 -21 90 -356 187 -745 l176
-708 258 0 257 0 118 447 c64 247 121 457 125 468 9 24 -2 66 136 -487 l106
-428 259 0 c143 0 259 3 259 6 0 7 354 1352 376 1432 l15 52 105 0 104 0 0
165 0 165 -357 -2 -358 -3 -3 -162 -2 -163 115 0 c73 0 115 -4 115 -10 0 -14
-238 -900 -248 -924 -6 -14 -56 170 -168 620 l-160 639 -165 3 -165 2 -169
-627 c-92 -346 -171 -634 -175 -642 -6 -11 -240 896 -240 929 0 6 46 10 120
10 l120 0 0 165 0 165 -480 0 -480 0 0 -165z"/>
</g>
</svg>
